<?xml version="1.0" encoding="utf-8"?>
<!-- Generator: Adobe Illustrator 16.0.3, SVG Export Plug-In . SVG Version: 6.00 Build 0)  -->
<!DOCTYPE svg PUBLIC "-//W3C//DTD SVG 1.1//EN" "http://www.w3.org/Graphics/SVG/1.1/DTD/svg11.dtd">
<svg version="1.1" id="AT_Logo" xmlns="http://www.w3.org/2000/svg" xmlns:xlink="http://www.w3.org/1999/xlink" x="0px" y="0px"
	 width="135px" height="30px" viewBox="5.739 0 135 30" enable-background="new 5.739 0 135 30" xml:space="preserve">
<path fill="#32515A" d="M81.701,11.609l-0.964,5.749c0,0,3.606,0.425,3.606-4.375c0-1.903,3.933-1.544,3.933-0.418
	c0,4.792-4.438,5.402-4.438,5.402s2.457,0.941,2.217,3.794c-0.182,2.14,0.072,3.455,0.377,3.785c0.33,0.358,0.812,0.424,0.878,0.713
	c0.055,0.246-0.263,0.577-0.571,0.763c-0.949,0.568-2.355,0.479-2.709,0.42c-0.611-0.103-1.121-0.39-1.412-0.713
	c-0.254-0.283-0.543-0.688-0.568-1.437c-0.018-0.517,0.021-1.017,0.035-1.36c0.006-0.166,0.074-1.119,0.076-1.502
	c0.002-0.611,0-0.535-0.09-1.326c-0.062-0.547-0.165-0.822-0.572-1.256c-0.379-0.404-1.051-0.49-1.051-0.49l-1.568,8.14h-4.234
	l0.744-4.261c0,0-2.333,4.261-6.271,4.261c-5.197,0-5.515-4.623-5.515-4.623s-0.61,4.623-4.644,4.623
	c-4.742,0-3.979-5.562-2.385-8.545c0.85-1.597,2.745-3.427,2.745-3.427s-2.338,1.83-6.896,1.83c-1.051,0-0.594,0-0.594,0
	s-1.271,10.141-9.073,10.141c-5.053,0-4.878-7.143-0.897-11.124c2.622-2.621,6.371-3.238,6.371-3.238s1.327-4.511,3.562-7.171
	c1.778-2.12,3.713-2.035,3.713-2.035s-4.402-1.043-9.768,2.417c-3.943,2.543-10.92,0.279-6.698-2.313
	c2.832-1.74,14.406-7.148,20.197-1.357c8.298,8.298-1.546,23.229,1.947,22.042c1.054-0.356,1.948-1.127,1.907-4.856
	c-0.029-2.811,3.349-1,3.382,0.721c0.019,0.954,0.065,2.751,1.392,3.163c1.805,0.559,2.788-1.101,2.059-2.607
	c-0.559-1.155-2.674-2.12-3.873-3.063c-2-1.576-2.182-7.052,4.576-6.527c3.715,0.288,4.562,3.577,3.231,4.768
	c-1.938,1.732-3.554-3.022-5.31-1.27c-0.246,0.246-0.829,1.441,2.697,2.952c3.203,1.375,2.535,4.542,2.535,4.542
	s1.232,0.271,2.145-2.074c0.436-1.12,1.279-6.077,1.714-8.852 M100.959,17.468l0.99-5.812l-3.834-0.046
	c0,0-1.768,15.592-4.693,12.667c-1.971-1.973,2.926-18.216,2.926-18.216s7.04,2.835,12.363,2.849
	c14.647,0.037,18.148-4.929,18.057-5.081c0,0-4.479,1.255-8.979,1.774c-16.498,1.906-20.897-4.352-29.973-5.405
	C82.562-0.411,74.34,0.302,71.049,3.591c-1.559,1.56,2.918,3.798,6.494,3.199c1.836-0.308,7.375-2.382,11.191-2.409
	C91.617,4.362,94.44,5.45,94.44,5.45s-1.864,0.254-3.155,3.344c-0.146,0.345-8.57,18.704,1.654,18.704
	c5.732,0,6.829-4.842,7.504-5.975c1.025-1.726,2.438-2.467,2.438-2.467s-0.635,3.5-0.775,4.586
	c-0.416,3.143,0.827,3.854,2.675,3.854c1.023,0,2.177-0.326,2.423-1.289c0.203-0.798-1.479-0.316-1.273-1.766
	c0.263-1.844,0.998-6.188,0.998-6.188s0.169-0.024,0.729,0.003c0.879,0.049,1.549,0.327,1.549,0.327s-2.403,1.438-1.383,5.231
	c0.639,2.375,2.702,3.682,5.137,3.682c5.508,0,7.43-4.005,7.43-4.005l-0.631,4.005h4.215l1.779-11.544c0,0,0.689-1.016,1.188-1.212
	c0.675-0.265,0.438,0.881,0.438,0.881l-1.724,11.875h4.242l1.587-11.544c0,0,0.551-0.872,0.979-1.11
	c0.809-0.449,0.543,0.814,0.543,0.814s-0.9,6.477-1.086,8.646c-0.015,0.195-0.033,0.584-0.031,0.781
	c0.003,0.135-0.067,1.632,1.117,2.136c1.229,0.521,2.748,0.211,3.334-0.257c1.269-1.011,1.218-2.011,1.22-2.16
	c0-0.229-0.224-0.291-0.319-0.292c-0.156-0.002-0.291,0.051-0.502,0.143c-0.115,0.049-0.271,0.148-0.472,0.164
	c-0.034,0.002-0.071,0.004-0.112-0.008c-0.049-0.018-0.097-0.037-0.148-0.066c-0.039-0.021-0.062-0.026-0.092-0.061
	c-0.025-0.033-0.033-0.035-0.095-0.141c-0.016-0.021-0.044-0.13-0.049-0.189c-0.006-0.074-0.017-0.185,0-0.334
	c0.296-2.688,1.233-7.517,1.272-10.047c0-0.153-0.026-0.458-0.055-0.608c-0.029-0.149-0.111-0.449-0.176-0.586
	c-0.047-0.104-0.439-1.199-2.083-1.012c-1.938,0.22-3.048,2.339-3.048,2.339s0.037-0.139,0.018-0.361
	c-0.015-0.193-0.062-0.58-0.123-0.763c-0.055-0.157-0.615-1.724-2.72-1.13c-1.961,0.553-3.093,2.254-3.093,2.254
	s-0.01-0.36-0.039-0.641c-0.021-0.198-0.084-0.594-0.129-0.789c-0.041-0.172-0.16-0.511-0.258-0.661
	c-0.045-0.081-0.172-0.227-0.254-0.28c-0.054-0.039-0.186-0.101-0.252-0.102c-1.127-0.02-4.422-0.02-4.422-0.02
	s1.363,3.083,0.527,6.242c-1.496,5.662-9.13,6.383-9.624,3.703c-0.188-1.027,0.244-1.578,0.244-1.578s0.912,0.181,1.346,0.199
	c0.522,0.024,1.343,0.035,2.034-0.555c0.363-0.311,0.441-0.553,0.482-0.666c0.234-0.643-0.06-1.154-0.127-1.271
	c-0.849-1.473-3.598-0.273-3.598-0.273s-0.561-1.948,1.471-2.524c2.746-0.781,2.465,2.115,4.646,1.626
	c1.194-0.267,2.067-3.899-1.54-4.718c-2.037-0.464-3.369-0.074-3.99,0.151c-1.484,0.544-2.154,1.608-2.236,1.73
	c-0.084,0.124-0.219,0.392-0.287,0.525c-0.784,1.506-0.137,3.108-0.137,3.108s-0.236-0.177-0.877-0.444
	c-0.822-0.349-1.58-0.388-1.58-0.388l0.701-4.816l-3.852-0.048l-0.836,5.25c0,0-0.328,0.062-1.162,0.291 M58.539,8.608
	c0-2.391-2.426-3.555-4.664,0.742c-1.146,2.199-1.221,3.271-1.221,3.271S58.539,12.804,58.539,8.608z M42.222,20.643
	c0,1.086,1.41,1.401,2.47,0.344c1.378-1.377,2.178-3.629,2.178-3.629S42.222,17.663,42.222,20.643z"/>
<path fill="#32515A" d="M19.706,0.001c-7.65,0-13.853,6.202-13.853,13.853c0,7.652,6.203,13.853,13.853,13.853
	c7.651,0,13.854-6.201,13.854-13.853C33.56,6.203,27.357,0.001,19.706,0.001z M21.638,24.772l-2.215-1.164l-2.214,1.164l0.422-2.466
	l-1.792-1.748l2.477-0.358l1.107-2.245L20.53,20.2l2.477,0.358l-1.792,1.748L21.638,24.772z M21.483,14.334
	c-1.018,0.55-1.252,0.696-1.98,1.615c-0.512,0.646-2.047-0.48-2.047-3.12c0-2.875,3.445-4.228,4.207-6.026
	c0.12-0.262,0.188-0.552,0.188-0.858c0-1.146-0.929-2.076-2.076-2.076c-0.904,0-1.67,0.579-1.955,1.386
	c-0.014,0.032-0.029,0.059-0.042,0.092c-0.262,0.725-0.451,1.896-0.917,3.281c-0.005,0.015-0.01,0.024-0.014,0.038
	c-0.046,0.154-0.109,0.3-0.187,0.436c-0.156,0.297-0.335,0.493-0.53,0.611c-0.352,0.274-0.793,0.439-1.272,0.439
	c-1.146,0-2.076-0.929-2.076-2.076c0-0.149,0.016-0.293,0.046-0.433c0.059-0.698,0.66-4.475,6.705-4.475
	C26.922,3.169,29.268,10.131,21.483,14.334z"/>
</svg>
