<?xml version="1.0" encoding="utf-8"?>
<!-- Generator: Adobe Illustrator 16.0.3, SVG Export Plug-In . SVG Version: 6.00 Build 0)  -->
<!DOCTYPE svg PUBLIC "-//W3C//DTD SVG 1.1//EN" "http://www.w3.org/Graphics/SVG/1.1/DTD/svg11.dtd">
<svg version="1.1" id="AT_Logo" xmlns="http://www.w3.org/2000/svg" xmlns:xlink="http://www.w3.org/1999/xlink" x="0px" y="0px"
	 width="100px" height="30px" viewBox="0 0 100 30" enable-background="new 0 0 100 30" xml:space="preserve">
<path fill="#FA7564" d="M43.972,11.609l-0.963,5.749c0,0,3.606,0.424,3.606-4.375c0-1.903,3.933-1.544,3.933-0.418
	c0,4.792-4.439,5.402-4.439,5.402s2.458,0.941,2.217,3.794c-0.182,2.14,0.072,3.455,0.377,3.785c0.33,0.358,0.813,0.424,0.878,0.713
	c0.055,0.246-0.262,0.577-0.571,0.763c-0.95,0.568-2.356,0.479-2.709,0.42c-0.612-0.103-1.121-0.39-1.412-0.713
	c-0.254-0.283-0.543-0.688-0.568-1.437c-0.018-0.517,0.021-1.017,0.034-1.36c0.006-0.166,0.075-1.119,0.076-1.502
	c0.002-0.611,0.001-0.535-0.089-1.326c-0.063-0.547-0.165-0.823-0.572-1.256c-0.38-0.404-1.051-0.49-1.051-0.49l-1.569,8.139h-4.234
	l0.744-4.26c0,0-2.333,4.26-6.271,4.26c-5.197,0-5.515-4.623-5.515-4.623s-0.61,4.623-4.643,4.623c-4.742,0-3.98-5.561-2.386-8.545
	c0.851-1.596,2.746-3.426,2.746-3.426s-2.338,1.83-6.896,1.83c-1.051,0-0.593,0-0.593,0S12.83,27.496,5.029,27.496
	c-5.053,0-4.878-7.143-0.897-11.124c2.622-2.621,6.371-3.238,6.371-3.238s1.327-4.511,3.561-7.171
	c1.779-2.12,3.713-2.035,3.713-2.035S13.375,2.885,8.01,6.345C4.067,8.888-2.91,6.624,1.312,4.031
	c2.832-1.74,14.406-7.148,20.197-1.357c8.297,8.298-1.546,23.229,1.947,22.042c1.054-0.356,1.948-1.127,1.908-4.856
	c-0.03-2.811,3.348-1,3.381,0.72c0.018,0.954,0.066,2.751,1.391,3.163c1.806,0.559,2.789-1.1,2.06-2.607
	c-0.56-1.156-2.675-2.121-3.874-3.064c-2-1.576-2.181-7.052,4.576-6.527c3.715,0.288,4.562,3.577,3.232,4.768
	c-1.938,1.732-3.554-3.023-5.31-1.27c-0.246,0.246-0.829,1.441,2.697,2.952c3.203,1.375,2.536,4.542,2.536,4.542
	s1.232,0.271,2.144-2.074c0.436-1.12,1.28-6.077,1.714-8.852 M63.231,17.468l0.99-5.812l-3.834-0.046c0,0-1.768,15.592-4.693,12.667
	c-1.971-1.973,2.925-18.216,2.925-18.216s7.04,2.835,12.363,2.849C85.63,8.947,89.131,3.981,89.039,3.829
	c0,0-4.478,1.255-8.979,1.774C63.562,7.509,59.163,1.251,50.088,0.198c-5.254-0.609-13.477,0.104-16.767,3.393
	c-1.559,1.56,2.917,3.798,6.494,3.199c1.836-0.308,7.375-2.382,11.191-2.409c2.882-0.019,5.706,1.069,5.706,1.069
	s-1.864,0.254-3.155,3.344c-0.146,0.345-8.57,18.704,1.654,18.704c5.732,0,6.829-4.842,7.504-5.975
	c1.025-1.725,2.438-2.467,2.438-2.467s-0.636,3.5-0.776,4.586c-0.416,3.143,0.827,3.854,2.675,3.854
	c1.023,0,2.176-0.326,2.423-1.289c0.203-0.798-1.479-0.317-1.274-1.765c0.263-1.844,0.998-6.189,0.998-6.189
	s0.169-0.025,0.729,0.003c0.878,0.048,1.548,0.327,1.548,0.327s-2.403,1.438-1.382,5.232c0.639,2.375,2.702,3.681,5.137,3.681
	c5.507,0,7.429-4.005,7.429-4.005l-0.631,4.005h4.215l1.78-11.544c0,0,0.689-1.016,1.188-1.212c0.675-0.265,0.439,0.881,0.439,0.881
	l-1.724,11.875h4.242l1.587-11.544c0,0,0.55-0.872,0.979-1.11c0.808-0.449,0.542,0.814,0.542,0.814s-0.9,6.477-1.085,8.646
	c-0.015,0.195-0.034,0.584-0.032,0.781c0.003,0.135-0.067,1.632,1.117,2.136c1.229,0.521,2.749,0.21,3.335-0.257
	c1.268-1.011,1.217-2.011,1.219-2.16c0-0.229-0.224-0.291-0.32-0.292c-0.156-0.002-0.291,0.05-0.501,0.142
	c-0.115,0.049-0.271,0.149-0.472,0.164c-0.034,0.002-0.071,0.004-0.112-0.008c-0.049-0.017-0.097-0.037-0.149-0.066
	c-0.039-0.021-0.062-0.026-0.091-0.061c-0.026-0.033-0.034-0.035-0.095-0.14c-0.016-0.022-0.044-0.13-0.049-0.19
	c-0.006-0.074-0.016-0.184,0-0.334c0.296-2.687,1.233-7.516,1.272-10.047c0-0.153-0.026-0.458-0.054-0.608
	c-0.029-0.149-0.112-0.449-0.176-0.586c-0.047-0.104-0.44-1.199-2.083-1.012c-1.939,0.22-3.048,2.339-3.048,2.339
	s0.037-0.139,0.018-0.361c-0.015-0.193-0.062-0.58-0.124-0.763c-0.054-0.157-0.614-1.724-2.719-1.13
	c-1.961,0.553-3.093,2.254-3.093,2.254s-0.009-0.36-0.039-0.641c-0.022-0.198-0.084-0.594-0.129-0.789
	c-0.041-0.172-0.16-0.511-0.257-0.661c-0.046-0.081-0.173-0.227-0.254-0.28c-0.054-0.039-0.186-0.101-0.252-0.102
	c-1.127-0.02-4.423-0.02-4.423-0.02s1.364,3.083,0.528,6.242c-1.496,5.662-9.13,6.383-9.624,3.703
	c-0.188-1.027,0.244-1.578,0.244-1.578s0.912,0.18,1.346,0.199c0.522,0.024,1.342,0.035,2.034-0.555
	c0.363-0.311,0.441-0.553,0.483-0.666c0.234-0.643-0.06-1.154-0.128-1.271c-0.848-1.473-3.597-0.274-3.597-0.274
	s-0.561-1.948,1.47-2.524c2.746-0.781,2.465,2.115,4.646,1.626c1.194-0.267,2.067-3.899-1.54-4.718
	c-2.037-0.464-3.369-0.074-3.99,0.151c-1.484,0.544-2.154,1.608-2.237,1.73c-0.083,0.124-0.218,0.392-0.286,0.525
	c-0.785,1.506-0.137,3.109-0.137,3.109s-0.237-0.177-0.878-0.445c-0.821-0.348-1.579-0.387-1.579-0.387l0.701-4.817l-3.852-0.048
	l-0.836,5.25c0,0-0.328,0.061-1.162,0.291 M20.81,8.608c0-2.391-2.425-3.555-4.663,0.742c-1.146,2.199-1.221,3.271-1.221,3.271
	S20.81,12.804,20.81,8.608z M4.493,20.643c0,1.086,1.41,1.401,2.47,0.344c1.378-1.377,2.178-3.629,2.178-3.629
	S4.493,17.663,4.493,20.643z"/>
</svg>
