<?xml version="1.0" encoding="utf-8"?>
<!-- Generator: Adobe Illustrator 16.0.3, SVG Export Plug-In . SVG Version: 6.00 Build 0)  -->
<!DOCTYPE svg PUBLIC "-//W3C//DTD SVG 1.1//EN" "http://www.w3.org/Graphics/SVG/1.1/DTD/svg11.dtd">
<svg version="1.1" id="AT_Logo" xmlns="http://www.w3.org/2000/svg" xmlns:xlink="http://www.w3.org/1999/xlink" x="0px" y="0px"
	 width="100px" height="30px" viewBox="440.647 0 100 30" enable-background="new 440.647 0 100 30" xml:space="preserve">
<path fill="#32515A" d="M484.62,11.609l-0.963,5.748c0,0,3.607,0.424,3.607-4.374c0-1.903,3.932-1.544,3.932-0.418
	c0,4.792-4.439,5.402-4.439,5.402s2.458,0.941,2.217,3.794c-0.182,2.139,0.072,3.455,0.377,3.785
	c0.33,0.358,0.813,0.424,0.877,0.713c0.055,0.246-0.261,0.577-0.571,0.763c-0.95,0.568-2.356,0.478-2.709,0.419
	c-0.612-0.102-1.121-0.389-1.412-0.712c-0.254-0.284-0.543-0.689-0.568-1.437c-0.018-0.516,0.021-1.017,0.034-1.361
	c0.006-0.166,0.075-1.119,0.076-1.501c0.002-0.612,0.001-0.536-0.089-1.327c-0.063-0.547-0.165-0.823-0.572-1.255
	c-0.38-0.404-1.051-0.491-1.051-0.491l-1.569,8.139h-4.234l0.744-4.259c0,0-2.333,4.259-6.271,4.259
	c-5.197,0-5.515-4.623-5.515-4.623s-0.61,4.623-4.642,4.623c-4.742,0-3.98-5.561-2.386-8.545c0.851-1.595,2.746-3.426,2.746-3.426
	s-2.338,1.831-6.896,1.831c-1.051,0-0.593,0-0.593,0s-1.271,10.14-9.072,10.14c-5.053,0-4.878-7.143-0.898-11.124
	c2.622-2.621,6.371-3.238,6.371-3.238s1.327-4.511,3.561-7.171c1.779-2.12,3.713-2.035,3.713-2.035s-4.402-1.043-9.767,2.417
	c-3.942,2.543-10.92,0.279-6.697-2.314c2.832-1.74,14.406-7.148,20.197-1.357c8.297,8.298-1.546,23.229,1.947,22.042
	c1.054-0.357,1.949-1.127,1.909-4.856c-0.031-2.811,3.347-1.001,3.381,0.719c0.017,0.954,0.066,2.751,1.39,3.163
	c1.806,0.559,2.789-1.1,2.06-2.607c-0.56-1.157-2.675-2.121-3.874-3.064c-2-1.577-2.181-7.053,4.576-6.528
	c3.715,0.288,4.562,3.577,3.232,4.767c-1.937,1.733-3.553-3.023-5.309-1.269c-0.246,0.246-0.829,1.442,2.697,2.952
	c3.203,1.375,2.536,4.542,2.536,4.542s1.233,0.271,2.144-2.074c0.435-1.12,1.28-6.077,1.714-8.852 M503.88,17.468l0.99-5.812
	l-3.834-0.046c0,0-1.767,15.592-4.693,12.667c-1.971-1.972,2.925-18.216,2.925-18.216s7.04,2.835,12.363,2.849
	c14.647,0.037,18.148-4.929,18.056-5.081c0,0-4.477,1.255-8.978,1.774c-16.499,1.906-20.897-4.352-29.973-5.405
	c-5.254-0.609-13.476,0.104-16.766,3.393c-1.559,1.56,2.917,3.798,6.494,3.199c1.836-0.308,7.375-2.382,11.191-2.409
	c2.882-0.019,5.706,1.069,5.706,1.069s-1.864,0.254-3.155,3.344c-0.145,0.345-8.57,18.704,1.654,18.704
	c5.733,0,6.829-4.842,7.504-5.974c1.026-1.725,2.438-2.468,2.438-2.468s-0.636,3.5-0.777,4.587
	c-0.416,3.142,0.828,3.854,2.675,3.854c1.024,0,2.176-0.326,2.423-1.289c0.203-0.798-1.479-0.317-1.274-1.764
	c0.262-1.844,0.998-6.19,0.998-6.19s0.169-0.026,0.729,0.003c0.878,0.047,1.548,0.327,1.548,0.327s-2.403,1.437-1.382,5.233
	c0.639,2.374,2.702,3.68,5.137,3.68c5.507,0,7.429-4.005,7.429-4.005l-0.631,4.005h4.215l1.78-11.544c0,0,0.689-1.016,1.188-1.212
	c0.675-0.265,0.44,0.881,0.44,0.881l-1.724,11.875h4.242l1.587-11.544c0,0,0.55-0.872,0.98-1.11
	c0.807-0.449,0.542,0.814,0.542,0.814s-0.901,6.477-1.085,8.646c-0.015,0.195-0.034,0.584-0.032,0.781
	c0.003,0.135-0.068,1.632,1.117,2.136c1.228,0.52,2.749,0.209,3.335-0.257c1.267-1.011,1.216-2.011,1.218-2.16
	c0-0.229-0.223-0.291-0.32-0.292c-0.156-0.002-0.291,0.049-0.501,0.141c-0.115,0.049-0.271,0.15-0.472,0.164
	c-0.034,0.003-0.071,0.005-0.112-0.008c-0.049-0.016-0.096-0.037-0.149-0.066c-0.039-0.021-0.062-0.026-0.091-0.061
	c-0.026-0.033-0.034-0.034-0.095-0.139c-0.015-0.023-0.044-0.13-0.049-0.19c-0.005-0.075-0.015-0.184,0-0.335
	c0.296-2.686,1.234-7.515,1.273-10.047c0-0.153-0.027-0.458-0.054-0.608c-0.029-0.149-0.112-0.449-0.176-0.586
	c-0.047-0.104-0.44-1.199-2.083-1.012c-1.939,0.22-3.047,2.339-3.047,2.339s0.037-0.139,0.017-0.361
	c-0.015-0.193-0.063-0.58-0.124-0.763c-0.054-0.157-0.614-1.724-2.719-1.13c-1.961,0.553-3.093,2.254-3.093,2.254
	s-0.008-0.36-0.039-0.641c-0.022-0.198-0.084-0.594-0.128-0.789c-0.041-0.172-0.161-0.511-0.257-0.661
	c-0.046-0.081-0.173-0.227-0.254-0.28c-0.054-0.039-0.186-0.101-0.252-0.102c-1.127-0.02-4.423-0.02-4.423-0.02
	s1.364,3.083,0.528,6.242c-1.496,5.661-9.13,6.382-9.624,3.703c-0.188-1.028,0.245-1.578,0.245-1.578s0.912,0.179,1.345,0.199
	c0.523,0.024,1.342,0.035,2.034-0.555c0.364-0.311,0.442-0.553,0.484-0.666c0.234-0.643-0.06-1.154-0.128-1.271
	c-0.848-1.473-3.597-0.275-3.597-0.275s-0.56-1.948,1.47-2.524c2.746-0.781,2.465,2.115,4.646,1.626
	c1.195-0.267,2.068-3.899-1.54-4.718c-2.037-0.464-3.369-0.074-3.99,0.151c-1.484,0.544-2.154,1.608-2.237,1.73
	c-0.083,0.124-0.218,0.392-0.286,0.525c-0.785,1.506-0.137,3.109-0.137,3.109s-0.237-0.176-0.878-0.445
	c-0.821-0.348-1.579-0.386-1.579-0.386l0.701-4.818l-3.851-0.048l-0.836,5.25c0,0-0.328,0.061-1.162,0.291 M461.458,8.608
	c0-2.391-2.425-3.555-4.663,0.742c-1.146,2.199-1.221,3.271-1.221,3.271S461.458,12.804,461.458,8.608z M445.142,20.643
	c0,1.085,1.41,1.401,2.469,0.343c1.378-1.377,2.178-3.628,2.178-3.628S445.142,17.663,445.142,20.643z"/>
</svg>
