<?xml version="1.0" encoding="utf-8"?>
<!-- Generator: Adobe Illustrator 16.0.3, SVG Export Plug-In . SVG Version: 6.00 Build 0)  -->
<!DOCTYPE svg PUBLIC "-//W3C//DTD SVG 1.1//EN" "http://www.w3.org/Graphics/SVG/1.1/DTD/svg11.dtd">
<svg version="1.1" id="Layer_1" xmlns="http://www.w3.org/2000/svg" xmlns:xlink="http://www.w3.org/1999/xlink" x="0px" y="0px"
	 width="30px" height="30px" viewBox="0 0 30 30" enable-background="new 0 0 30 30" xml:space="preserve">
<path fill="#32515A" d="M14.999,1.147C7.35,1.147,1.146,7.349,1.146,15c0,7.652,6.203,13.854,13.853,13.854
	c7.651,0,13.854-6.201,13.854-13.854C28.854,7.349,22.65,1.147,14.999,1.147z M16.932,25.918l-2.216-1.164l-2.214,1.164l0.422-2.465
	l-1.792-1.748l2.478-0.359l1.106-2.244l1.107,2.244l2.477,0.359l-1.792,1.748L16.932,25.918z M16.775,15.48
	c-1.018,0.549-1.251,0.696-1.979,1.616c-0.512,0.646-2.047-0.48-2.047-3.121c0-2.875,3.445-4.228,4.207-6.026
	c0.12-0.262,0.188-0.552,0.188-0.858c0-1.146-0.93-2.076-2.076-2.076c-0.904,0-1.67,0.579-1.955,1.386
	C13.1,6.433,13.084,6.46,13.071,6.493c-0.262,0.725-0.451,1.896-0.917,3.281c-0.005,0.015-0.01,0.024-0.014,0.038
	c-0.047,0.154-0.109,0.3-0.188,0.436c-0.156,0.297-0.335,0.493-0.53,0.611c-0.352,0.274-0.793,0.439-1.271,0.439
	c-1.146,0-2.076-0.929-2.076-2.076c0-0.149,0.016-0.293,0.046-0.433c0.06-0.698,0.66-4.475,6.705-4.475
	C22.215,4.315,24.561,11.277,16.775,15.48z"/>
</svg>
