<?xml version="1.0" encoding="utf-8"?>
<!-- Generator: Adobe Illustrator 16.0.3, SVG Export Plug-In . SVG Version: 6.00 Build 0)  -->
<!DOCTYPE svg PUBLIC "-//W3C//DTD SVG 1.1//EN" "http://www.w3.org/Graphics/SVG/1.1/DTD/svg11.dtd">
<svg version="1.1" id="Layer_1" xmlns="http://www.w3.org/2000/svg" xmlns:xlink="http://www.w3.org/1999/xlink" x="0px" y="0px"
	 width="432px" height="275px" viewBox="0 0 432 275" enable-background="new 0 0 432 275" xml:space="preserve">
<title>map_of_usa</title>
<desc>Generated with maputil.js (mapper.netzgesta.de)</desc>
<defs>
	
	<script  type="text/ecmascript">
		<![CDATA[
var fdat="",sdat="";
function onAreaOver(evt){var ele=evt.target; fdat=ele.getAttribute("fill"); sdat=ele.getAttribute("stroke"); ele.setAttribute("fill","limegreen"); ele.setAttribute("stroke","green");}
function onAreaOut(evt){var ele=evt.target; ele.setAttribute("fill",fdat); ele.setAttribute("stroke",sdat);}

			]]>
	</script>
</defs>
<polygon fill="#82B7C8" points="430,32 430,31 429,31 429,32 428,32 428,31 428,30 427,30 427,29 426,29 425,29 424,29 424,28 
	423,28 422,27 419,13 418,12 417,12 416,11 415,11 414,11 414,12 413,12 412,12 411,12 410,13 409,13 408,12 406,22 406,23 406,24 
	406,25 407,27 407,29 407,30 407,31 407,32 406,32 406,34 406,35 405,36 405,35 404,36 405,37 404,38 403,38 402,38 402,39 402,40 
	401,41 400,41 399,41 398,42 398,43 392,44 387,45 386,46 384,46 383,47 382,47 380,47 378,48 376,49 374,50 373,52 372,53 372,54 
	371,55 371,56 370,57 370,58 371,58 371,59 370,60 371,61 371,62 371,65 371,66 370,66 369,66 369,67 368,68 367,69 367,68 366,69 
	363,70 362,70 362,69 361,69 358,69 355,70 353,71 352,72 352,73 352,75 353,78 353,80 352,80 351,82 348,84 347,85 347,86 346,86 
	345,86 344,87 343,87 342,88 341,88 338,90 336,92 334,93 333,93 333,94 332,94 331,95 330,95 329,95 328,96 326,96 326,95 325,95 
	324,95 324,94 323,94 323,95 322,95 321,95 322,94 321,94 321,93 321,92 322,91 322,90 322,89 323,88 324,87 324,86 324,85 325,85 
	326,85 327,85 327,84 327,83 327,82 327,81 325,75 323,71 322,70 321,69 320,70 319,71 318,71 318,72 319,72 318,73 317,74 317,75 
	316,76 315,76 314,76 313,74 313,73 313,72 314,72 314,71 314,70 315,69 315,68 316,67 316,65 317,64 316,64 317,63 318,63 318,61 
	316,61 317,60 316,59 315,58 313,58 312,57 311,56 310,56 309,55 307,54 305,53 305,54 303,56 303,58 303,59 303,60 304,60 304,61 
	303,61 302,61 301,60 301,61 301,62 301,63 301,64 300,65 299,64 299,63 299,62 299,61 298,62 298,64 298,65 297,65 296,66 296,67 
	296,68 296,69 295,69 295,70 295,71 296,72 295,74 295,76 295,77 296,77 295,78 297,81 298,82 298,83 297,84 297,85 298,86 299,88 
	299,90 297,93 294,97 294,98 294,99 293,99 292,100 291,100 290,100 290,99 289,99 288,98 288,97 287,97 287,95 287,94 286,93 
	285,90 285,87 285,84 285,82 285,81 285,79 285,78 285,77 286,75 286,74 287,72 288,69 288,68 288,67 288,66 287,66 286,67 286,68 
	285,68 285,69 284,69 284,68 284,66 284,65 284,64 285,64 285,63 285,61 286,60 287,56 288,56 289,55 289,56 289,57 289,58 290,58 
	290,56 291,55 292,55 293,55 293,54 294,53 295,53 296,53 297,52 298,52 299,52 300,52 301,53 302,53 303,53 302,52 302,51 303,51 
	304,52 305,52 306,52 308,52 310,52 311,51 312,51 313,50 312,49 311,48 310,48 310,47 310,46 309,45 308,45 308,46 307,46 306,46 
	305,46 304,46 304,45 303,44 303,43 302,43 300,44 299,44 297,44 296,44 295,45 294,46 293,46 292,47 292,48 291,47 290,47 289,47 
	288,48 287,48 286,47 285,46 284,46 284,45 283,45 283,44 282,44 280,44 279,44 279,43 278,44 277,45 277,46 276,45 276,44 277,42 
	278,41 279,40 279,39 281,39 281,38 280,38 279,38 278,39 276,40 275,41 274,43 273,44 272,45 270,46 269,46 268,46 267,47 265,48 
	264,49 263,49 262,49 261,49 260,49 259,50 259,49 260,48 260,47 261,47 261,46 260,46 259,46 258,47 257,47 257,48 256,48 255,48 
	255,49 254,48 254,47 253,48 253,49 252,49 252,48 252,47 253,47 254,45 254,44 255,43 257,41 260,39 263,36 266,35 268,33 267,33 
	266,33 265,33 264,33 263,33 262,33 261,32 260,33 259,33 258,34 257,33 256,33 255,33 254,33 252,32 251,31 250,31 250,32 249,32 
	249,31 248,32 247,31 247,30 246,29 244,29 242,29 241,29 240,29 239,29 239,28 238,28 237,28 236,28 234,28 233,28 232,28 232,27 
	232,26 231,26 227,26 216,26 211,26 202,26 189,26 181,26 173,25 170,25 152,24 139,23 125,21 108,19 91,17 83,15 82,15 79,14 
	76,14 75,14 72,13 63,11 56,9 46,6 39,4 37,3 37,4 37,5 38,6 39,6 38,8 37,8 37,9 37,10 38,11 38,13 37,15 36,17 35,18 34,18 34,17 
	35,16 35,15 35,14 35,13 35,12 34,12 33,11 32,11 31,11 30,10 28,10 26,9 25,9 25,8 24,8 23,7 22,7 22,8 22,9 22,11 22,12 22,13 
	22,15 22,17 23,18 23,19 23,20 24,21 25,21 24,22 23,23 22,23 22,24 23,24 24,25 24,26 23,26 22,26 22,27 22,28 22,29 22,30 22,32 
	21,33 20,35 20,36 20,37 20,38 21,38 21,39 20,39 20,40 19,40 18,40 18,41 17,42 16,44 16,46 15,48 14,48 14,49 14,50 13,51 13,52 
	12,55 11,56 11,57 10,58 9,59 8,59 7,60 7,61 7,62 7,66 7,67 7,68 7,69 7,70 7,72 7,73 6,76 5,79 4,82 4,83 3,83 3,82 2,81 2,82 
	1,83 1,86 1,87 1,88 1,89 1,90 2,90 3,92 3,93 3,94 2,96 2,98 2,100 2,101 3,103 3,104 3,105 4,106 4,107 5,108 5,109 4,110 4,112 
	5,112 5,113 5,114 5,115 6,115 7,116 8,115 8,114 8,113 8,112 9,112 10,112 11,113 12,113 12,114 12,115 11,115 10,115 10,116 
	11,116 11,117 11,118 11,120 10,120 10,119 9,119 8,118 7,118 7,119 8,120 8,122 8,124 9,125 10,127 11,128 10,129 8,130 7,131 
	8,132 8,133 8,134 8,135 8,136 9,137 10,137 11,138 11,140 11,141 14,145 15,146 15,148 15,149 14,151 14,152 14,154 15,154 15,155 
	17,155 18,156 19,156 23,160 25,161 25,162 28,164 30,165 30,166 31,167 32,168 33,169 34,171 34,172 35,173 36,175 37,180 36,180 
	36,182 58,184 58,185 58,186 87,206 105,209 110,209 111,205 126,206 126,207 128,210 129,211 130,213 132,215 133,216 135,219 
	136,222 137,224 138,225 139,229 141,230 147,233 151,234 153,235 154,235 156,235 158,237 159,237 160,235 162,233 162,232 
	163,229 164,228 165,228 168,229 170,229 172,229 174,230 175,231 177,231 178,232 180,234 182,236 182,238 184,242 185,245 
	187,246 188,250 189,253 191,255 192,256 194,260 194,262 196,264 198,265 200,266 201,267 202,268 204,268 205,269 207,269 
	210,271 213,272 213,271 212,270 212,269 210,263 209,259 209,257 208,256 210,256 211,255 211,253 210,252 209,252 209,251 
	210,251 212,251 213,249 211,249 211,248 213,248 213,249 214,249 216,247 215,245 216,245 217,246 217,245 219,243 219,242 
	218,242 216,241 216,240 217,240 218,241 220,241 221,240 221,241 222,241 225,241 225,242 223,244 226,243 229,241 231,239 
	232,236 233,234 234,233 233,233 232,232 231,230 232,230 234,229 235,229 235,231 236,231 237,231 237,232 242,230 245,230 
	245,229 246,229 247,229 249,229 251,230 254,231 256,231 256,230 255,230 254,229 254,228 255,228 255,229 257,228 257,229 
	258,230 259,231 261,231 261,230 260,229 260,227 259,226 258,225 257,224 256,223 256,222 257,223 258,223 259,225 261,226 
	261,227 260,227 261,229 262,229 262,230 263,232 265,232 266,233 267,235 268,235 270,236 271,234 272,234 273,234 274,235 
	275,236 276,236 277,236 277,234 278,234 279,234 278,232 277,230 274,229 272,228 270,227 270,226 273,228 274,228 274,227 
	276,229 278,230 278,231 279,231 280,232 281,233 283,234 283,236 285,235 285,236 287,235 288,234 289,233 288,233 287,232 
	285,231 283,231 281,229 283,229 285,229 285,228 284,227 284,226 283,226 283,225 284,224 283,223 283,224 282,224 281,225 
	280,225 277,225 277,224 278,223 278,222 276,222 274,223 273,222 273,221 274,220 275,220 277,221 278,221 280,222 279,222 
	278,223 280,223 281,223 283,222 284,223 284,222 285,222 286,222 286,221 287,221 287,222 288,222 289,222 289,221 290,221 
	292,221 292,220 293,220 293,219 293,218 294,217 295,217 295,218 296,219 296,220 297,220 297,221 299,221 300,220 303,220 
	304,219 304,218 305,217 306,218 306,219 308,219 309,218 312,218 313,218 313,217 314,217 314,218 315,218 319,218 317,219 
	318,219 319,219 320,220 320,221 320,223 319,223 320,224 322,224 324,223 325,223 327,221 328,221 330,219 331,218 332,218 
	334,218 334,219 335,220 336,220 337,220 338,220 338,221 338,223 339,223 341,223 344,226 346,228 347,231 347,235 347,237 
	348,240 349,240 349,239 348,238 348,237 349,237 350,238 350,236 351,237 351,238 351,239 350,241 349,242 348,242 349,243 
	350,244 352,247 352,246 353,247 354,247 354,246 355,246 356,245 356,246 356,247 356,251 357,251 357,250 358,249 358,250 
	358,253 360,256 364,258 367,258 368,259 367,260 368,260 368,261 367,262 367,263 368,264 367,264 366,264 365,265 367,265 
	369,265 370,264 371,264 374,262 375,262 375,260 376,259 377,257 377,255 377,251 375,243 375,242 370,236 368,233 367,231 
	366,229 366,227 365,226 364,224 363,223 361,220 357,214 356,211 355,209 354,207 355,206 354,206 353,206 354,205 355,205 
	355,204 355,203 354,203 354,202 355,202 355,201 355,200 356,200 356,199 356,198 355,198 355,197 356,197 355,196 355,195 
	356,195 356,194 357,194 357,193 357,192 357,191 357,190 358,190 359,189 358,188 358,187 359,187 359,188 360,188 361,187 
	361,186 360,185 361,184 362,184 362,185 363,185 363,184 364,183 364,182 364,181 365,182 366,182 367,181 367,180 368,179 
	369,179 370,179 370,178 371,177 371,176 371,175 372,174 372,173 373,171 375,170 376,169 379,167 380,167 380,166 381,165 
	380,165 380,164 381,162 384,159 388,156 389,155 389,154 388,154 387,154 386,155 384,155 383,154 384,154 385,154 386,153 
	387,152 387,151 386,151 385,150 387,150 388,151 390,151 391,151 392,150 392,149 393,147 393,146 394,146 394,145 393,143 
	392,143 391,143 391,144 391,145 391,146 390,144 389,144 388,144 387,144 385,145 385,144 384,143 382,142 383,142 384,142 
	385,142 386,142 388,142 389,142 390,141 391,141 391,140 391,139 391,138 392,138 392,137 391,136 390,135 389,133 388,133 
	387,133 386,134 385,134 385,133 383,132 381,131 382,131 383,131 385,131 386,131 386,130 386,129 386,128 385,127 383,126 
	383,125 384,124 384,123 383,123 382,123 381,123 379,123 380,122 381,121 382,121 383,120 383,119 383,118 382,117 381,116 
	381,115 381,114 381,113 380,113 380,112 380,110 379,109 379,107 380,106 380,105 381,106 381,107 381,108 381,109 382,110 
	382,111 382,112 382,113 383,113 384,115 385,116 386,117 387,118 386,118 386,119 386,120 387,121 387,122 387,123 387,125 
	388,128 389,129 389,128 390,128 390,127 390,126 390,124 390,122 390,121 390,120 391,120 391,119 391,118 391,116 391,114 
	390,114 389,113 389,112 388,111 388,110 387,109 387,108 389,110 390,110 390,111 390,112 390,113 391,113 391,112 392,111 
	392,110 393,109 394,109 395,106 396,105 397,104 398,103 398,100 398,99 397,97 396,96 396,94 394,93 393,93 393,92 393,91 394,91 
	394,90 395,89 394,89 394,88 395,87 396,87 396,86 397,86 397,85 398,85 399,85 399,84 400,84 401,84 401,83 402,83 403,83 404,82 
	405,82 406,81 407,81 408,81 408,80 409,80 410,80 411,79 413,78 413,77 414,77 414,76 415,75 416,75 417,75 417,76 418,76 419,75 
	420,74 421,73 421,74 422,74 421,72 421,71 421,69 420,69 420,70 420,71 420,72 419,72 418,72 418,73 417,72 416,72 416,71 415,70 
	414,69 414,68 413,68 412,68 412,67 412,66 411,66 411,65 411,64 411,63 411,62 411,61 411,60 411,59 411,58 412,57 413,56 413,55 
	412,55 413,54 414,54 414,53 413,52 414,51 414,52 415,52 416,51 415,50 416,49 416,48 417,49 418,48 419,47 420,45 420,43 419,42 
	420,41 421,42 422,43 423,42 423,41 424,41 425,41 426,40 426,39 427,39 427,38 428,37 429,37 430,36 430,35 431,35 431,33 431,32 
	"/>
</svg>
