<?xml version="1.0" encoding="utf-8"?>
<!-- Generator: Adobe Illustrator 16.0.3, SVG Export Plug-In . SVG Version: 6.00 Build 0)  -->
<!DOCTYPE svg PUBLIC "-//W3C//DTD SVG 1.1//EN" "http://www.w3.org/Graphics/SVG/1.1/DTD/svg11.dtd">
<svg version="1.1" id="AT_Logo" xmlns="http://www.w3.org/2000/svg" xmlns:xlink="http://www.w3.org/1999/xlink" x="0px" y="0px"
	 width="135px" height="30px" viewBox="0 0 135 30" enable-background="new 0 0 135 30" xml:space="preserve">
<path fill="#FA7564" d="M70.185,11.609l-0.965,5.749c0,0,3.606,0.428,3.606-4.375c0-1.903,3.932-1.544,3.932-0.418
	c0,4.792-4.438,5.402-4.438,5.402s2.458,0.941,2.217,3.794c-0.183,2.14,0.071,3.455,0.377,3.785c0.33,0.358,0.812,0.425,0.879,0.713
	c0.055,0.246-0.265,0.577-0.572,0.763c-0.946,0.568-2.354,0.479-2.708,0.42c-0.609-0.103-1.119-0.39-1.41-0.713
	c-0.256-0.283-0.543-0.688-0.566-1.437c-0.02-0.517,0.02-1.017,0.033-1.36c0.006-0.166,0.074-1.119,0.076-1.502
	c0.002-0.611,0-0.535-0.092-1.326c-0.062-0.547-0.164-0.819-0.57-1.256c-0.379-0.404-1.051-0.49-1.051-0.49L67.364,27.5h-4.232
	l0.744-4.264c0,0-2.333,4.264-6.271,4.264c-5.197,0-5.515-4.623-5.515-4.623S51.48,27.5,47.446,27.5
	c-4.742,0-3.979-5.562-2.385-8.545c0.85-1.6,2.745-3.43,2.745-3.43s-2.338,1.83-6.896,1.83c-1.051,0-0.594,0-0.594,0
	s-1.271,10.144-9.073,10.144c-5.053,0-4.878-7.146-0.897-11.124c2.622-2.621,6.371-3.238,6.371-3.238s1.327-4.511,3.562-7.171
	c1.778-2.12,3.713-2.035,3.713-2.035s-4.402-1.043-9.768,2.417c-3.943,2.543-10.92,0.279-6.698-2.313
	c2.832-1.74,14.406-7.148,20.197-1.357c8.298,8.298-1.546,23.229,1.947,22.042c1.054-0.355,1.948-1.128,1.907-4.855
	c-0.029-2.812,3.349-1,3.382,0.722c0.019,0.954,0.065,2.751,1.392,3.163c1.805,0.559,2.787-1.102,2.059-2.607
	c-0.559-1.153-2.674-2.119-3.873-3.062c-2-1.576-2.182-7.052,4.576-6.527c3.713,0.288,4.562,3.577,3.23,4.769
	c-1.937,1.731-3.552-3.021-5.309-1.271c-0.246,0.246-0.829,1.441,2.697,2.952c3.205,1.375,2.534,4.542,2.534,4.542
	s1.232,0.271,2.146-2.073c0.436-1.119,1.278-6.078,1.713-8.853 M89.442,17.468l0.99-5.812l-3.834-0.046
	c0,0-1.768,15.592-4.693,12.667c-1.971-1.973,2.927-18.216,2.927-18.216s7.041,2.835,12.362,2.849
	c14.646,0.037,18.148-4.929,18.058-5.081c0,0-4.479,1.255-8.979,1.774C89.774,7.509,85.376,1.251,76.3,0.198
	c-5.253-0.609-13.476,0.104-16.767,3.393c-1.559,1.56,2.917,3.798,6.494,3.199c1.835-0.308,7.375-2.382,11.191-2.409
	c2.883-0.019,5.705,1.069,5.705,1.069s-1.863,0.254-3.154,3.344c-0.145,0.345-8.57,18.704,1.654,18.704
	c5.732,0,6.828-4.842,7.504-5.975c1.025-1.729,2.438-2.467,2.438-2.467s-0.635,3.5-0.772,4.586
	c-0.416,3.143,0.828,3.854,2.677,3.854c1.022,0,2.178-0.326,2.424-1.289c0.203-0.798-1.48-0.316-1.273-1.766
	c0.262-1.844,0.998-6.188,0.998-6.188s0.168-0.024,0.729,0.003c0.879,0.049,1.549,0.327,1.549,0.327s-2.399,1.438-1.383,5.231
	c0.639,2.375,2.701,3.682,5.137,3.682c5.511,0,7.433-4.005,7.433-4.005l-0.631,4.005h4.215l1.776-11.544
	c0,0,0.689-1.016,1.189-1.212c0.676-0.265,0.438,0.881,0.438,0.881l-1.726,11.875h4.242l1.586-11.544c0,0,0.553-0.872,0.98-1.11
	c0.809-0.449,0.543,0.814,0.543,0.814s-0.9,6.477-1.086,8.646c-0.016,0.195-0.033,0.584-0.031,0.781
	c0.002,0.135-0.066,1.632,1.117,2.136c1.229,0.521,2.748,0.211,3.334-0.257c1.268-1.011,1.217-2.011,1.219-2.16
	c0-0.229-0.223-0.291-0.318-0.292c-0.156-0.002-0.291,0.051-0.502,0.143c-0.115,0.052-0.27,0.148-0.473,0.164
	c-0.033,0.002-0.07,0.004-0.111-0.008c-0.049-0.018-0.098-0.037-0.146-0.063c-0.039-0.021-0.062-0.026-0.095-0.062
	c-0.022-0.033-0.03-0.035-0.096-0.142c-0.016-0.021-0.043-0.13-0.049-0.188c-0.006-0.074-0.016-0.186,0-0.334
	c0.297-2.688,1.234-7.518,1.273-10.045c0-0.153-0.027-0.458-0.055-0.608c-0.029-0.149-0.111-0.449-0.179-0.586
	c-0.047-0.104-0.438-1.199-2.082-1.012c-1.938,0.22-3.049,2.339-3.049,2.339s0.037-0.139,0.021-0.361
	c-0.017-0.193-0.062-0.58-0.123-0.763c-0.058-0.157-0.615-1.724-2.722-1.13c-1.961,0.553-3.094,2.254-3.094,2.254
	s-0.013-0.36-0.039-0.641c-0.021-0.198-0.084-0.594-0.129-0.789c-0.041-0.172-0.16-0.511-0.261-0.661
	c-0.045-0.081-0.172-0.227-0.254-0.28c-0.053-0.039-0.186-0.101-0.252-0.102c-1.127-0.02-4.422-0.02-4.422-0.02
	s1.363,3.083,0.527,6.244c-1.496,5.662-9.131,6.384-9.625,3.703c-0.188-1.026,0.244-1.578,0.244-1.578s0.912,0.182,1.346,0.197
	c0.523,0.024,1.344,0.035,2.035-0.555c0.363-0.312,0.441-0.555,0.482-0.666c0.231-0.645-0.062-1.154-0.127-1.271
	c-0.851-1.474-3.601-0.271-3.601-0.271s-0.562-1.948,1.474-2.524c2.746-0.781,2.465,2.115,4.645,1.625
	c1.195-0.268,2.068-3.897-1.539-4.719c-2.037-0.464-3.369-0.074-3.99,0.151c-1.484,0.544-2.154,1.608-2.236,1.73
	c-0.084,0.124-0.219,0.392-0.285,0.525c-0.782,1.506-0.139,3.107-0.139,3.107s-0.233-0.179-0.877-0.443
	c-0.822-0.35-1.58-0.389-1.58-0.389l0.701-4.815l-3.852-0.048l-0.836,5.25c0,0-0.328,0.062-1.162,0.291 M47.024,8.608
	c0-2.391-2.426-3.555-4.664,0.742c-1.146,2.199-1.221,3.271-1.221,3.271S47.024,12.804,47.024,8.608z M30.707,20.643
	c0,1.086,1.41,1.401,2.47,0.344c1.378-1.377,2.178-3.629,2.178-3.629S30.707,17.663,30.707,20.643z"/>
<g>
	<polygon fill="#FA7564" points="11.531,27.771 8.688,26.277 5.847,27.771 6.388,24.607 4.088,22.363 7.267,21.902 8.688,19.021 
		10.109,21.902 13.288,22.363 10.988,24.607 	"/>
	<path fill="#FA7564" d="M11.332,14.375c-1.307,0.706-1.607,0.893-2.542,2.072c-0.657,0.83-2.627-0.616-2.627-4.004
		c0-3.69,4.421-5.426,5.399-7.734c0.154-0.336,0.241-0.708,0.241-1.102c0-1.47-1.192-2.664-2.665-2.664
		c-1.16,0-2.144,0.744-2.509,1.779C6.613,2.763,6.593,2.798,6.577,2.841C6.241,3.771,5.998,5.274,5.4,7.051
		C5.394,7.071,5.387,7.082,5.382,7.1c-0.059,0.198-0.14,0.385-0.24,0.56c-0.2,0.381-0.43,0.633-0.68,0.784
		C4.01,8.795,3.444,9.007,2.829,9.007c-1.471,0-2.664-1.192-2.664-2.665c0-0.191,0.021-0.375,0.059-0.556
		C0.3,4.891,1.071,0.044,8.829,0.044C18.312,0.045,21.324,8.98,11.332,14.375z"/>
</g>
</svg>
