<?xml version="1.0" encoding="utf-8"?>
<!-- Generator: Adobe Illustrator 16.0.3, SVG Export Plug-In . SVG Version: 6.00 Build 0)  -->
<!DOCTYPE svg PUBLIC "-//W3C//DTD SVG 1.1//EN" "http://www.w3.org/Graphics/SVG/1.1/DTD/svg11.dtd">
<svg version="1.1" id="AT_Logo" xmlns="http://www.w3.org/2000/svg" xmlns:xlink="http://www.w3.org/1999/xlink" x="0px" y="0px"
	 width="135px" height="30px" viewBox="0 66.5 135 30" enable-background="new 0 66.5 135 30" xml:space="preserve">
<path fill="#FA7564" d="M75.848,78.107l-0.965,5.749c0,0,3.607,0.426,3.607-4.374c0-1.903,3.932-1.545,3.932-0.418
	c0,4.792-4.438,5.401-4.438,5.401s2.457,0.941,2.217,3.794c-0.182,2.14,0.072,3.455,0.377,3.785c0.33,0.358,0.812,0.425,0.879,0.713
	c0.055,0.246-0.264,0.577-0.572,0.763c-0.947,0.568-2.354,0.479-2.709,0.42c-0.609-0.103-1.119-0.39-1.41-0.713
	c-0.256-0.283-0.543-0.688-0.568-1.437c-0.018-0.517,0.02-1.017,0.035-1.36c0.006-0.166,0.074-1.119,0.076-1.502
	c0.002-0.611,0-0.535-0.092-1.326c-0.061-0.547-0.164-0.821-0.57-1.256c-0.379-0.404-1.051-0.49-1.051-0.49l-1.568,8.141h-4.234
	l0.744-4.262c0,0-2.333,4.262-6.271,4.262c-5.197,0-5.515-4.623-5.515-4.623s-0.61,4.623-4.644,4.623
	c-4.742,0-3.979-5.562-2.385-8.545c0.85-1.598,2.745-3.428,2.745-3.428s-2.338,1.83-6.896,1.83c-1.051,0-0.594,0-0.594,0
	s-1.271,10.142-9.073,10.142c-5.053,0-4.878-7.144-0.897-11.124c2.622-2.621,6.371-3.238,6.371-3.238s1.327-4.511,3.562-7.171
	c1.778-2.12,3.713-2.035,3.713-2.035s-4.402-1.043-9.768,2.418c-3.943,2.543-10.92,0.278-6.698-2.313
	c2.832-1.74,14.406-7.148,20.197-1.357c8.298,8.298-1.546,23.229,1.947,22.042c1.054-0.356,1.948-1.127,1.907-4.856
	c-0.029-2.811,3.349-1,3.382,0.722c0.019,0.954,0.065,2.751,1.392,3.163c1.805,0.559,2.787-1.102,2.059-2.607
	c-0.559-1.154-2.674-2.119-3.873-3.062c-2-1.576-2.182-7.052,4.576-6.527c3.714,0.288,4.562,3.577,3.23,4.768
	c-1.937,1.732-3.552-3.021-5.309-1.27c-0.246,0.246-0.829,1.441,2.697,2.952c3.204,1.375,2.534,4.542,2.534,4.542
	s1.232,0.271,2.146-2.074c0.436-1.119,1.279-6.077,1.713-8.852 M95.105,83.967l0.99-5.812l-3.834-0.046
	c0,0-1.768,15.592-4.693,12.667c-1.971-1.973,2.926-18.216,2.926-18.216s7.041,2.834,12.363,2.849
	c14.646,0.036,18.148-4.929,18.057-5.081c0,0-4.479,1.255-8.979,1.773c-16.498,1.906-20.896-4.352-29.973-5.404
	c-5.254-0.609-13.477,0.104-16.767,3.393c-1.559,1.561,2.917,3.799,6.494,3.199c1.836-0.309,7.375-2.382,11.191-2.409
	c2.883-0.019,5.705,1.069,5.705,1.069s-1.863,0.254-3.154,3.344c-0.146,0.346-8.57,18.704,1.654,18.704
	c5.732,0,6.828-4.842,7.504-5.975c1.025-1.727,2.438-2.467,2.438-2.467s-0.635,3.5-0.775,4.586
	c-0.416,3.143,0.828,3.854,2.676,3.854c1.023,0,2.178-0.326,2.424-1.289c0.203-0.798-1.48-0.316-1.273-1.766
	c0.262-1.844,0.998-6.188,0.998-6.188s0.168-0.024,0.729,0.003c0.879,0.049,1.549,0.327,1.549,0.327s-2.402,1.438-1.383,5.231
	c0.639,2.375,2.701,3.682,5.137,3.682c5.508,0,7.43-4.005,7.43-4.005l-0.631,4.005h4.215l1.779-11.544c0,0,0.689-1.016,1.188-1.212
	c0.676-0.265,0.439,0.881,0.439,0.881l-1.725,11.875h4.242l1.586-11.544c0,0,0.553-0.872,0.98-1.11
	c0.809-0.448,0.543,0.814,0.543,0.814s-0.9,6.477-1.086,8.646c-0.016,0.195-0.033,0.584-0.031,0.781
	c0.002,0.135-0.066,1.632,1.117,2.136c1.229,0.521,2.748,0.211,3.334-0.257c1.268-1.011,1.217-2.011,1.219-2.16
	c0-0.229-0.223-0.291-0.318-0.292c-0.156-0.002-0.291,0.051-0.502,0.143c-0.115,0.05-0.271,0.148-0.473,0.164
	c-0.033,0.002-0.07,0.004-0.111-0.008c-0.049-0.018-0.098-0.037-0.148-0.065c-0.039-0.021-0.062-0.026-0.092-0.062
	c-0.025-0.033-0.033-0.035-0.096-0.141c-0.016-0.021-0.043-0.13-0.049-0.189c-0.006-0.074-0.016-0.185,0-0.334
	c0.297-2.688,1.234-7.517,1.273-10.046c0-0.154-0.027-0.459-0.055-0.609c-0.029-0.148-0.111-0.448-0.178-0.586
	c-0.047-0.104-0.438-1.198-2.082-1.012c-1.938,0.221-3.049,2.34-3.049,2.34s0.037-0.14,0.02-0.361
	c-0.016-0.193-0.062-0.58-0.123-0.764c-0.057-0.156-0.615-1.724-2.721-1.129c-1.961,0.553-3.094,2.254-3.094,2.254
	s-0.01-0.36-0.039-0.642c-0.02-0.198-0.084-0.594-0.129-0.789c-0.041-0.172-0.16-0.511-0.258-0.661
	c-0.045-0.08-0.172-0.227-0.254-0.279c-0.053-0.039-0.186-0.102-0.252-0.103c-1.127-0.021-4.422-0.021-4.422-0.021
	s1.363,3.084,0.527,6.243c-1.496,5.662-9.131,6.383-9.625,3.703c-0.188-1.027,0.244-1.578,0.244-1.578s0.912,0.181,1.346,0.198
	c0.523,0.024,1.344,0.035,2.035-0.555c0.363-0.312,0.441-0.554,0.482-0.666c0.232-0.644-0.061-1.154-0.127-1.271
	c-0.85-1.474-3.6-0.273-3.6-0.273s-0.561-1.948,1.473-2.524c2.746-0.781,2.465,2.115,4.645,1.626
	c1.195-0.267,2.068-3.898-1.539-4.718c-2.037-0.464-3.369-0.074-3.99,0.15c-1.484,0.545-2.154,1.609-2.236,1.73
	c-0.084,0.124-0.219,0.393-0.287,0.525c-0.783,1.506-0.137,3.108-0.137,3.108s-0.236-0.178-0.877-0.444
	c-0.822-0.349-1.58-0.388-1.58-0.388l0.701-4.816l-3.852-0.048l-0.836,5.249c0,0-0.328,0.062-1.162,0.291 M52.686,75.107
	c0-2.392-2.426-3.555-4.664,0.742c-1.146,2.198-1.221,3.271-1.221,3.271S52.686,79.303,52.686,75.107z M36.369,87.142
	c0,1.086,1.41,1.401,2.47,0.344c1.378-1.377,2.178-3.629,2.178-3.629S36.369,84.162,36.369,87.142z"/>
<path fill="#FA7564" d="M13.853,66.5C6.203,66.5,0,72.702,0,80.354s6.203,13.853,13.853,13.853c7.651,0,13.854-6.201,13.854-13.853
	S21.504,66.5,13.853,66.5z M15.785,91.271l-2.215-1.164l-2.214,1.164l0.422-2.465l-1.792-1.748l2.477-0.358l1.107-2.245l1.107,2.245
	l2.477,0.358l-1.792,1.748L15.785,91.271z M15.63,80.833c-1.018,0.55-1.252,0.696-1.98,1.615c-0.512,0.646-2.047-0.48-2.047-3.12
	c0-2.875,3.445-4.229,4.207-6.025c0.12-0.263,0.188-0.553,0.188-0.859c0-1.146-0.929-2.075-2.076-2.075
	c-0.904,0-1.67,0.579-1.955,1.386c-0.014,0.032-0.029,0.059-0.042,0.092c-0.262,0.725-0.451,1.896-0.917,3.281
	c-0.005,0.016-0.01,0.023-0.014,0.038c-0.046,0.153-0.109,0.3-0.187,0.437c-0.156,0.297-0.335,0.492-0.53,0.61
	c-0.352,0.274-0.793,0.438-1.272,0.438c-1.146,0-2.076-0.928-2.076-2.075c0-0.149,0.016-0.293,0.046-0.433
	c0.059-0.699,0.66-4.476,6.705-4.476C21.069,69.668,23.415,76.63,15.63,80.833z"/>
</svg>
