<?xml version="1.0" encoding="utf-8"?>
<!-- Generator: Adobe Illustrator 16.0.3, SVG Export Plug-In . SVG Version: 6.00 Build 0)  -->
<!DOCTYPE svg PUBLIC "-//W3C//DTD SVG 1.1//EN" "http://www.w3.org/Graphics/SVG/1.1/DTD/svg11.dtd">
<svg version="1.1" id="AT_Logo" xmlns="http://www.w3.org/2000/svg" xmlns:xlink="http://www.w3.org/1999/xlink" x="0px" y="0px"
	 width="135px" height="30px" viewBox="0 0 135 30" enable-background="new 0 0 135 30" xml:space="preserve">
<path fill="#32515A" d="M75.848,11.607l-0.965,5.75c0,0,3.607,0.426,3.607-4.375c0-1.902,3.932-1.545,3.932-0.418
	c0,4.793-4.438,5.401-4.438,5.401s2.457,0.941,2.217,3.795c-0.182,2.141,0.072,3.455,0.377,3.785
	c0.33,0.357,0.812,0.426,0.879,0.713c0.055,0.246-0.264,0.576-0.572,0.764c-0.947,0.566-2.354,0.479-2.709,0.42
	c-0.609-0.104-1.119-0.391-1.41-0.713c-0.256-0.283-0.543-0.689-0.567-1.438c-0.019-0.518,0.02-1.018,0.034-1.359
	c0.006-0.166,0.074-1.119,0.076-1.502c0.002-0.611,0-0.535-0.092-1.326c-0.061-0.547-0.164-0.822-0.57-1.256
	c-0.379-0.404-1.051-0.49-1.051-0.49l-1.568,8.141h-4.233l0.744-4.262c0,0-2.333,4.262-6.271,4.262
	c-5.197,0-5.515-4.623-5.515-4.623s-0.61,4.623-4.644,4.623c-4.742,0-3.979-5.562-2.385-8.545c0.85-1.598,2.745-3.428,2.745-3.428
	s-2.338,1.83-6.896,1.83c-1.051,0-0.594,0-0.594,0s-1.271,10.141-9.073,10.141c-5.053,0-4.878-7.143-0.897-11.123
	c2.622-2.622,6.371-3.239,6.371-3.239s1.327-4.511,3.562-7.171c1.778-2.12,3.713-2.034,3.713-2.034s-4.402-1.043-9.768,2.418
	c-3.943,2.543-10.92,0.277-6.698-2.313c2.832-1.74,14.406-7.147,20.197-1.357c8.298,8.298-1.546,23.23,1.947,22.042
	c1.054-0.355,1.948-1.127,1.907-4.855c-0.029-2.812,3.349-1,3.382,0.721c0.019,0.955,0.065,2.752,1.392,3.164
	c1.805,0.559,2.787-1.102,2.059-2.607c-0.559-1.154-2.674-2.119-3.873-3.062c-2-1.576-2.182-7.051,4.576-6.527
	c3.713,0.288,4.562,3.577,3.23,4.769c-1.937,1.73-3.552-3.022-5.309-1.271c-0.246,0.246-0.829,1.441,2.697,2.953
	c3.205,1.375,2.534,4.541,2.534,4.541s1.232,0.271,2.146-2.072c0.436-1.119,1.278-6.079,1.713-8.853 M95.105,17.467l0.99-5.811
	l-3.834-0.047c0,0-1.769,15.592-4.693,12.668C85.598,22.305,90.494,6.06,90.494,6.06s7.041,2.834,12.363,2.85
	c14.646,0.035,18.147-4.93,18.057-5.081c0,0-4.479,1.255-8.979,1.772C95.438,7.507,91.039,1.25,81.962,0.197
	C76.708-0.412,68.484,0.301,65.195,3.59c-1.559,1.562,2.917,3.8,6.495,3.199c1.836-0.31,7.375-2.382,11.19-2.409
	c2.884-0.02,5.705,1.069,5.705,1.069s-1.862,0.254-3.153,3.344c-0.146,0.347-8.57,18.705,1.653,18.705
	c5.731,0,6.828-4.842,7.504-5.975c1.024-1.729,2.438-2.467,2.438-2.467s-0.635,3.5-0.775,4.586
	c-0.416,3.143,0.828,3.854,2.676,3.854c1.023,0,2.178-0.326,2.424-1.289c0.203-0.799-1.479-0.316-1.272-1.766
	c0.262-1.844,0.998-6.189,0.998-6.189s0.168-0.023,0.729,0.004c0.879,0.049,1.549,0.326,1.549,0.326s-2.402,1.439-1.383,5.232
	c0.639,2.375,2.7,3.682,5.137,3.682c5.508,0,7.43-4.006,7.43-4.006l-0.631,4.006h4.215l1.779-11.545c0,0,0.688-1.016,1.188-1.211
	c0.676-0.266,0.439,0.881,0.439,0.881l-1.725,11.875h4.241l1.586-11.545c0,0,0.554-0.872,0.979-1.11
	c0.81-0.447,0.543,0.815,0.543,0.815s-0.899,6.477-1.086,8.645c-0.016,0.195-0.032,0.584-0.03,0.781
	c0.002,0.135-0.065,1.633,1.116,2.137c1.229,0.521,2.748,0.211,3.335-0.258c1.268-1.01,1.217-2.01,1.219-2.16
	c0-0.229-0.224-0.291-0.317-0.291c-0.156-0.002-0.291,0.051-0.502,0.143c-0.115,0.051-0.271,0.148-0.474,0.164
	c-0.033,0.002-0.069,0.004-0.11-0.008c-0.05-0.018-0.099-0.037-0.148-0.064c-0.039-0.021-0.062-0.027-0.092-0.062
	c-0.025-0.033-0.033-0.035-0.096-0.141c-0.017-0.021-0.044-0.131-0.05-0.189c-0.006-0.074-0.017-0.186,0-0.334
	c0.297-2.688,1.233-7.518,1.272-10.045c0-0.154-0.026-0.46-0.055-0.609c-0.029-0.148-0.111-0.448-0.178-0.586
	c-0.047-0.104-0.438-1.198-2.082-1.012c-1.938,0.221-3.049,2.34-3.049,2.34s0.037-0.141,0.02-0.361
	c-0.016-0.193-0.062-0.58-0.123-0.764c-0.057-0.156-0.615-1.725-2.721-1.129c-1.961,0.553-3.094,2.254-3.094,2.254
	s-0.01-0.36-0.039-0.643c-0.02-0.197-0.084-0.594-0.129-0.789c-0.041-0.172-0.16-0.511-0.258-0.66
	c-0.045-0.08-0.172-0.228-0.254-0.279c-0.053-0.039-0.187-0.103-0.252-0.104c-1.127-0.021-4.422-0.021-4.422-0.021
	s1.362,3.084,0.526,6.245c-1.496,5.662-9.131,6.383-9.625,3.703c-0.188-1.027,0.244-1.578,0.244-1.578s0.912,0.18,1.346,0.197
	c0.523,0.023,1.345,0.035,2.035-0.555c0.363-0.312,0.44-0.555,0.481-0.666c0.232-0.645-0.061-1.154-0.127-1.271
	c-0.85-1.475-3.6-0.273-3.6-0.273s-0.561-1.948,1.473-2.524c2.746-0.781,2.465,2.116,4.646,1.627
	c1.194-0.268,2.067-3.899-1.539-4.719c-2.037-0.464-3.369-0.074-3.989,0.15c-1.484,0.545-2.154,1.608-2.236,1.729
	c-0.084,0.124-0.219,0.394-0.287,0.525c-0.783,1.505-0.137,3.109-0.137,3.109s-0.236-0.18-0.877-0.445
	c-0.822-0.348-1.58-0.387-1.58-0.387l0.701-4.817l-3.853-0.049l-0.836,5.25c0,0-0.328,0.061-1.162,0.291 M52.686,8.607
	c0-2.392-2.426-3.555-4.664,0.742c-1.146,2.198-1.221,3.271-1.221,3.271S52.686,12.804,52.686,8.607z M36.369,20.643
	c0,1.086,1.41,1.4,2.47,0.344c1.378-1.377,2.178-3.629,2.178-3.629S36.369,17.662,36.369,20.643z"/>
<circle fill="#FFFFFF" cx="13.853" cy="13.854" r="13.853"/>
<polygon fill="#FA7564" points="15.785,24.771 13.57,23.607 11.356,24.771 11.778,22.307 9.986,20.559 12.463,20.199 13.57,17.955 
	14.677,20.199 17.154,20.559 15.362,22.307 "/>
<path fill="#FA7564" d="M15.63,14.333c-1.018,0.55-1.252,0.695-1.98,1.616c-0.512,0.646-2.047-0.481-2.047-3.121
	c0-2.875,3.445-4.229,4.207-6.024c0.12-0.264,0.188-0.554,0.188-0.859c0-1.146-0.929-2.075-2.076-2.075
	c-0.904,0-1.67,0.579-1.955,1.386c-0.014,0.032-0.029,0.059-0.042,0.092c-0.262,0.726-0.451,1.896-0.917,3.281
	c-0.005,0.016-0.01,0.023-0.014,0.038c-0.046,0.153-0.109,0.3-0.187,0.437c-0.156,0.297-0.335,0.492-0.53,0.61
	c-0.352,0.274-0.793,0.438-1.272,0.438c-1.146,0-2.076-0.928-2.076-2.075c0-0.149,0.016-0.293,0.046-0.433
	c0.059-0.699,0.66-4.477,6.705-4.477C21.069,3.168,23.415,10.13,15.63,14.333z"/>
<polygon fill="#FA7564" points="15.785,24.771 13.57,23.607 11.356,24.771 11.778,22.307 9.986,20.559 12.463,20.199 13.57,17.955 
	14.677,20.199 17.154,20.559 15.362,22.307 "/>
<path fill="#FA7564" d="M15.63,14.333c-1.018,0.55-1.252,0.695-1.98,1.616c-0.512,0.646-2.047-0.481-2.047-3.121
	c0-2.875,3.445-4.229,4.207-6.024c0.12-0.264,0.188-0.554,0.188-0.859c0-1.146-0.929-2.075-2.076-2.075
	c-0.904,0-1.67,0.579-1.955,1.386c-0.014,0.032-0.029,0.059-0.042,0.092c-0.262,0.726-0.451,1.896-0.917,3.281
	c-0.005,0.016-0.01,0.023-0.014,0.038c-0.046,0.153-0.109,0.3-0.187,0.437c-0.156,0.297-0.335,0.492-0.53,0.61
	c-0.352,0.274-0.793,0.438-1.272,0.438c-1.146,0-2.076-0.928-2.076-2.075c0-0.149,0.016-0.293,0.046-0.433
	c0.059-0.699,0.66-4.477,6.705-4.477C21.069,3.168,23.415,10.13,15.63,14.333z"/>
</svg>
